<svg width="8" height="8" viewBox="0 0 8 8" fill="none" xmlns="http://www.w3.org/2000/svg">
<path d="M7.065 4.285C7.02913 4.37682 6.97465 4.46024 6.905 4.53L4.405 7.03C4.26357 7.16933 4.07352 7.24822 3.875 7.25C3.73099 7.24828 3.59051 7.20513 3.47037 7.1257C3.35022 7.04628 3.25549 6.93394 3.19748 6.80211C3.13948 6.67028 3.12066 6.52454 3.14327 6.3823C3.16588 6.24006 3.22897 6.10734 3.325 6L4.56 4.76H1.625C1.42609 4.76 1.23532 4.68098 1.09467 4.54033C0.954018 4.39968 0.875 4.20891 0.875 4.01C0.875 3.81109 0.954018 3.62032 1.09467 3.47967C1.23532 3.33902 1.42609 3.26 1.625 3.26H4.56L3.325 2C3.19252 1.85783 3.1204 1.66978 3.12383 1.47548C3.12725 1.28118 3.20597 1.09579 3.34338 0.958378C3.48079 0.820965 3.66618 0.742254 3.86048 0.738825C4.05478 0.735397 4.24283 0.80752 4.385 0.94L6.885 3.44C6.95465 3.50976 7.00913 3.59318 7.045 3.685C7.08131 3.77214 7.1 3.8656 7.1 3.96C7.1 4.0544 7.08131 4.14786 7.045 4.235L7.065 4.285Z" fill="#EF4565"/>
</svg>
